<?xml version="1.0" encoding="UTF-8" standalone="no"?>
<!DOCTYPE svg PUBLIC "-//W3C//DTD SVG 1.1//EN"
 "http://www.w3.org/Graphics/SVG/1.1/DTD/svg11.dtd">
<!-- Generated by graphviz version 6.0.1 (20220911.1526)
 -->
<!-- Title: G Pages: 1 -->
<svg width="1339pt" height="640pt"
 viewBox="0.00 0.00 1339.20 640.20" xmlns="http://www.w3.org/2000/svg" xmlns:xlink="http://www.w3.org/1999/xlink">
<g id="graph0" class="graph" transform="scale(1 1) rotate(0) translate(21.6 618.6)">
<title>G</title>
<polygon fill="#111111" stroke="none" points="-21.6,21.6 -21.6,-618.6 1317.6,-618.6 1317.6,21.6 -21.6,21.6"/>
<!-- ../testUtils.ts -->
<g id="node1" class="node">
<title>../testUtils.ts</title>
<path fill="none" stroke="#cfffac" d="M204.83,-23C204.83,-23 130.17,-23 130.17,-23 126.33,-23 122.5,-19.17 122.5,-15.33 122.5,-15.33 122.5,-7.67 122.5,-7.67 122.5,-3.83 126.33,0 130.17,0 130.17,0 204.83,0 204.83,0 208.67,0 212.5,-3.83 212.5,-7.67 212.5,-7.67 212.5,-15.33 212.5,-15.33 212.5,-19.17 208.67,-23 204.83,-23"/>
<text text-anchor="middle" x="167.5" y="-7.8" font-family="Arial" font-size="14.00" fill="#cfffac">../testUtils.ts</text>
</g>
<!-- application/services/DomainEventPublisherService.ts -->
<g id="node2" class="node">
<title>application/services/DomainEventPublisherService.ts</title>
<path fill="none" stroke="#cfffac" d="M327.33,-64C327.33,-64 7.67,-64 7.67,-64 3.83,-64 0,-60.17 0,-56.33 0,-56.33 0,-48.67 0,-48.67 0,-44.83 3.83,-41 7.67,-41 7.67,-41 327.33,-41 327.33,-41 331.17,-41 335,-44.83 335,-48.67 335,-48.67 335,-56.33 335,-56.33 335,-60.17 331.17,-64 327.33,-64"/>
<text text-anchor="middle" x="167.5" y="-48.8" font-family="Arial" font-size="14.00" fill="#cfffac">application/services/DomainEventPublisherService.ts</text>
</g>
<!-- application/services/SlotLoaderService.ts -->
<g id="node3" class="node">
<title>application/services/SlotLoaderService.ts</title>
<path fill="none" stroke="#c6c5fe" d="M978.83,-208C978.83,-208 731.17,-208 731.17,-208 727.33,-208 723.5,-204.17 723.5,-200.33 723.5,-200.33 723.5,-192.67 723.5,-192.67 723.5,-188.83 727.33,-185 731.17,-185 731.17,-185 978.83,-185 978.83,-185 982.67,-185 986.5,-188.83 986.5,-192.67 986.5,-192.67 986.5,-200.33 986.5,-200.33 986.5,-204.17 982.67,-208 978.83,-208"/>
<text text-anchor="middle" x="855" y="-192.8" font-family="Arial" font-size="14.00" fill="#c6c5fe">application/services/SlotLoaderService.ts</text>
</g>
<!-- application/services/sanitizeInputData.ts -->
<g id="node4" class="node">
<title>application/services/sanitizeInputData.ts</title>
<path fill="none" stroke="#cfffac" d="M1288.33,-197C1288.33,-197 1046.67,-197 1046.67,-197 1042.83,-197 1039,-193.17 1039,-189.33 1039,-189.33 1039,-181.67 1039,-181.67 1039,-177.83 1042.83,-174 1046.67,-174 1046.67,-174 1288.33,-174 1288.33,-174 1292.17,-174 1296,-177.83 1296,-181.67 1296,-181.67 1296,-189.33 1296,-189.33 1296,-193.17 1292.17,-197 1288.33,-197"/>
<text text-anchor="middle" x="1167.5" y="-181.8" font-family="Arial" font-size="14.00" fill="#cfffac">application/services/sanitizeInputData.ts</text>
</g>
<!-- application/services/SlotLoaderService.ts&#45;&gt;application/services/sanitizeInputData.ts -->
<g id="edge1" class="edge">
<title>application/services/SlotLoaderService.ts&#45;&gt;application/services/sanitizeInputData.ts</title>
<path fill="none" stroke="#757575" d="M986.78,-191.87C1000.65,-191.38 1014.79,-190.87 1028.73,-190.38"/>
<polygon fill="#757575" stroke="#757575" points="1028.98,-193.87 1038.85,-190.02 1028.73,-186.88 1028.98,-193.87"/>
</g>
<!-- application/services/VerificationCodeService.ts -->
<g id="node5" class="node">
<title>application/services/VerificationCodeService.ts</title>
<path fill="none" stroke="#cfffac" d="M995.33,-105C995.33,-105 714.67,-105 714.67,-105 710.83,-105 707,-101.17 707,-97.33 707,-97.33 707,-89.67 707,-89.67 707,-85.83 710.83,-82 714.67,-82 714.67,-82 995.33,-82 995.33,-82 999.17,-82 1003,-85.83 1003,-89.67 1003,-89.67 1003,-97.33 1003,-97.33 1003,-101.17 999.17,-105 995.33,-105"/>
<text text-anchor="middle" x="855" y="-89.8" font-family="Arial" font-size="14.00" fill="#cfffac">application/services/VerificationCodeService.ts</text>
</g>
<!-- application/usecases/CancelSlotUseCase.ts -->
<g id="node6" class="node">
<title>application/usecases/CancelSlotUseCase.ts</title>
<path fill="none" stroke="#c6c5fe" d="M653.83,-269C653.83,-269 388.17,-269 388.17,-269 384.33,-269 380.5,-265.17 380.5,-261.33 380.5,-261.33 380.5,-253.67 380.5,-253.67 380.5,-249.83 384.33,-246 388.17,-246 388.17,-246 653.83,-246 653.83,-246 657.67,-246 661.5,-249.83 661.5,-253.67 661.5,-253.67 661.5,-261.33 661.5,-261.33 661.5,-265.17 657.67,-269 653.83,-269"/>
<text text-anchor="middle" x="521" y="-253.8" font-family="Arial" font-size="14.00" fill="#c6c5fe">application/usecases/CancelSlotUseCase.ts</text>
</g>
<!-- application/usecases/CancelSlotUseCase.ts&#45;&gt;application/services/SlotLoaderService.ts -->
<g id="edge2" class="edge">
<title>application/usecases/CancelSlotUseCase.ts&#45;&gt;application/services/SlotLoaderService.ts</title>
<path fill="none" stroke="#757575" d="M617.18,-245.98C635.1,-243.46 653.66,-240.6 671,-237.5 713.77,-229.85 761.68,-219.04 797.75,-210.43"/>
<polygon fill="#757575" stroke="#757575" points="798.69,-213.81 807.59,-208.07 797.05,-207 798.69,-213.81"/>
</g>
<!-- domain/services/ReservationService.ts -->
<g id="node7" class="node">
<title>domain/services/ReservationService.ts</title>
<path fill="none" stroke="#c6c5fe" d="M972.33,-269C972.33,-269 737.67,-269 737.67,-269 733.83,-269 730,-265.17 730,-261.33 730,-261.33 730,-253.67 730,-253.67 730,-249.83 733.83,-246 737.67,-246 737.67,-246 972.33,-246 972.33,-246 976.17,-246 980,-249.83 980,-253.67 980,-253.67 980,-261.33 980,-261.33 980,-265.17 976.17,-269 972.33,-269"/>
<text text-anchor="middle" x="855" y="-253.8" font-family="Arial" font-size="14.00" fill="#c6c5fe">domain/services/ReservationService.ts</text>
</g>
<!-- application/usecases/CancelSlotUseCase.ts&#45;&gt;domain/services/ReservationService.ts -->
<g id="edge3" class="edge">
<title>application/usecases/CancelSlotUseCase.ts&#45;&gt;domain/services/ReservationService.ts</title>
<path fill="none" stroke="#757575" d="M661.84,-257.5C680.99,-257.5 700.62,-257.5 719.67,-257.5"/>
<polygon fill="#757575" stroke="#757575" points="719.88,-261 729.88,-257.5 719.88,-254 719.88,-261"/>
</g>
<!-- domain/entities/Slot.ts -->
<g id="node15" class="node">
<title>domain/entities/Slot.ts</title>
<path fill="none" stroke="#cfffac" d="M1234.33,-320C1234.33,-320 1100.67,-320 1100.67,-320 1096.83,-320 1093,-316.17 1093,-312.33 1093,-312.33 1093,-304.67 1093,-304.67 1093,-300.83 1096.83,-297 1100.67,-297 1100.67,-297 1234.33,-297 1234.33,-297 1238.17,-297 1242,-300.83 1242,-304.67 1242,-304.67 1242,-312.33 1242,-312.33 1242,-316.17 1238.17,-320 1234.33,-320"/>
<text text-anchor="middle" x="1167.5" y="-304.8" font-family="Arial" font-size="14.00" fill="#cfffac">domain/entities/Slot.ts</text>
</g>
<!-- domain/services/ReservationService.ts&#45;&gt;domain/entities/Slot.ts -->
<g id="edge18" class="edge">
<title>domain/services/ReservationService.ts&#45;&gt;domain/entities/Slot.ts</title>
<path fill="none" stroke="#757575" d="M922.89,-269.03C957.53,-274.95 1000.52,-282.22 1039,-288.5 1053.19,-290.82 1068.29,-293.23 1082.93,-295.54"/>
<polygon fill="#757575" stroke="#757575" points="1082.56,-299.03 1092.99,-297.13 1083.65,-292.11 1082.56,-299.03"/>
</g>
<!-- domain/events/Event.ts -->
<g id="node16" class="node">
<title>domain/events/Event.ts</title>
<path fill="none" stroke="#cfffac" d="M1238.83,-279C1238.83,-279 1096.17,-279 1096.17,-279 1092.33,-279 1088.5,-275.17 1088.5,-271.33 1088.5,-271.33 1088.5,-263.67 1088.5,-263.67 1088.5,-259.83 1092.33,-256 1096.17,-256 1096.17,-256 1238.83,-256 1238.83,-256 1242.67,-256 1246.5,-259.83 1246.5,-263.67 1246.5,-263.67 1246.5,-271.33 1246.5,-271.33 1246.5,-275.17 1242.67,-279 1238.83,-279"/>
<text text-anchor="middle" x="1167.5" y="-263.8" font-family="Arial" font-size="14.00" fill="#cfffac">domain/events/Event.ts</text>
</g>
<!-- domain/services/ReservationService.ts&#45;&gt;domain/events/Event.ts -->
<g id="edge19" class="edge">
<title>domain/services/ReservationService.ts&#45;&gt;domain/events/Event.ts</title>
<path fill="none" stroke="#757575" d="M980.06,-261.5C1012.84,-262.55 1047.55,-263.67 1078.03,-264.65"/>
<polygon fill="#757575" stroke="#757575" points="1078.08,-268.15 1088.19,-264.98 1078.31,-261.16 1078.08,-268.15"/>
</g>
<!-- domain/valueObjects/TimeSlot.ts -->
<g id="node17" class="node">
<title>domain/valueObjects/TimeSlot.ts</title>
<path fill="none" stroke="#cfffac" d="M1267.83,-238C1267.83,-238 1067.17,-238 1067.17,-238 1063.33,-238 1059.5,-234.17 1059.5,-230.33 1059.5,-230.33 1059.5,-222.67 1059.5,-222.67 1059.5,-218.83 1063.33,-215 1067.17,-215 1067.17,-215 1267.83,-215 1267.83,-215 1271.67,-215 1275.5,-218.83 1275.5,-222.67 1275.5,-222.67 1275.5,-230.33 1275.5,-230.33 1275.5,-234.17 1271.67,-238 1267.83,-238"/>
<text text-anchor="middle" x="1167.5" y="-222.8" font-family="Arial" font-size="14.00" fill="#cfffac">domain/valueObjects/TimeSlot.ts</text>
</g>
<!-- domain/services/ReservationService.ts&#45;&gt;domain/valueObjects/TimeSlot.ts -->
<g id="edge20" class="edge">
<title>domain/services/ReservationService.ts&#45;&gt;domain/valueObjects/TimeSlot.ts</title>
<path fill="none" stroke="#757575" d="M971.62,-245.96C996.96,-243.43 1023.82,-240.75 1049.22,-238.21"/>
<polygon fill="#757575" stroke="#757575" points="1049.66,-241.68 1059.26,-237.21 1048.96,-234.72 1049.66,-241.68"/>
</g>
<!-- application/usecases/CheckInUseCase.ts -->
<g id="node8" class="node">
<title>application/usecases/CheckInUseCase.ts</title>
<path fill="none" stroke="#c6c5fe" d="M645.83,-146C645.83,-146 396.17,-146 396.17,-146 392.33,-146 388.5,-142.17 388.5,-138.33 388.5,-138.33 388.5,-130.67 388.5,-130.67 388.5,-126.83 392.33,-123 396.17,-123 396.17,-123 645.83,-123 645.83,-123 649.67,-123 653.5,-126.83 653.5,-130.67 653.5,-130.67 653.5,-138.33 653.5,-138.33 653.5,-142.17 649.67,-146 645.83,-146"/>
<text text-anchor="middle" x="521" y="-130.8" font-family="Arial" font-size="14.00" fill="#c6c5fe">application/usecases/CheckInUseCase.ts</text>
</g>
<!-- application/usecases/CheckInUseCase.ts&#45;&gt;application/services/SlotLoaderService.ts -->
<g id="edge4" class="edge">
<title>application/usecases/CheckInUseCase.ts&#45;&gt;application/services/SlotLoaderService.ts</title>
<path fill="none" stroke="#757575" d="M612.41,-146.05C631.78,-148.86 652.11,-152.06 671,-155.5 713.6,-163.26 761.33,-174.02 797.36,-182.58"/>
<polygon fill="#757575" stroke="#757575" points="796.66,-186.01 807.2,-184.92 798.28,-179.2 796.66,-186.01"/>
</g>
<!-- application/usecases/CheckInUseCase.ts&#45;&gt;domain/services/ReservationService.ts -->
<g id="edge5" class="edge">
<title>application/usecases/CheckInUseCase.ts&#45;&gt;domain/services/ReservationService.ts</title>
<path fill="none" stroke="#757575" d="M653.78,-146.03C659.8,-148.72 665.58,-151.85 671,-155.5 697.43,-173.29 681.73,-198.08 707,-217.5 721.93,-228.97 739.93,-237.16 758.13,-243"/>
<polygon fill="#757575" stroke="#757575" points="757.37,-246.42 767.95,-245.93 759.37,-239.72 757.37,-246.42"/>
</g>
<!-- application/usecases/CheckOutUseCase.ts -->
<g id="node9" class="node">
<title>application/usecases/CheckOutUseCase.ts</title>
<path fill="none" stroke="#c6c5fe" d="M651.33,-351C651.33,-351 390.67,-351 390.67,-351 386.83,-351 383,-347.17 383,-343.33 383,-343.33 383,-335.67 383,-335.67 383,-331.83 386.83,-328 390.67,-328 390.67,-328 651.33,-328 651.33,-328 655.17,-328 659,-331.83 659,-335.67 659,-335.67 659,-343.33 659,-343.33 659,-347.17 655.17,-351 651.33,-351"/>
<text text-anchor="middle" x="521" y="-335.8" font-family="Arial" font-size="14.00" fill="#c6c5fe">application/usecases/CheckOutUseCase.ts</text>
</g>
<!-- application/usecases/CheckOutUseCase.ts&#45;&gt;application/services/SlotLoaderService.ts -->
<g id="edge6" class="edge">
<title>application/usecases/CheckOutUseCase.ts&#45;&gt;application/services/SlotLoaderService.ts</title>
<path fill="none" stroke="#757575" d="M657.78,-327.85C662.4,-325.41 666.83,-322.64 671,-319.5 702.8,-295.56 676.93,-263.58 707,-237.5 720.68,-225.63 737.53,-217.18 754.89,-211.17"/>
<polygon fill="#757575" stroke="#757575" points="756.11,-214.45 764.56,-208.07 753.97,-207.78 756.11,-214.45"/>
</g>
<!-- application/usecases/CheckOutUseCase.ts&#45;&gt;domain/services/ReservationService.ts -->
<g id="edge7" class="edge">
<title>application/usecases/CheckOutUseCase.ts&#45;&gt;domain/services/ReservationService.ts</title>
<path fill="none" stroke="#757575" d="M627.07,-327.99C641.9,-325.61 656.9,-322.8 671,-319.5 722.2,-307.51 779.32,-286.96 815.9,-272.82"/>
<polygon fill="#757575" stroke="#757575" points="817.61,-275.91 825.66,-269.02 815.07,-269.39 817.61,-275.91"/>
</g>
<!-- application/usecases/CloseSlotsUseCase.ts -->
<g id="node10" class="node">
<title>application/usecases/CloseSlotsUseCase.ts</title>
<path fill="none" stroke="#c6c5fe" d="M653.33,-310C653.33,-310 388.67,-310 388.67,-310 384.83,-310 381,-306.17 381,-302.33 381,-302.33 381,-294.67 381,-294.67 381,-290.83 384.83,-287 388.67,-287 388.67,-287 653.33,-287 653.33,-287 657.17,-287 661,-290.83 661,-294.67 661,-294.67 661,-302.33 661,-302.33 661,-306.17 657.17,-310 653.33,-310"/>
<text text-anchor="middle" x="521" y="-294.8" font-family="Arial" font-size="14.00" fill="#c6c5fe">application/usecases/CloseSlotsUseCase.ts</text>
</g>
<!-- application/usecases/CloseSlotsUseCase.ts&#45;&gt;application/services/SlotLoaderService.ts -->
<g id="edge8" class="edge">
<title>application/usecases/CloseSlotsUseCase.ts&#45;&gt;application/services/SlotLoaderService.ts</title>
<path fill="none" stroke="#757575" d="M651.84,-286.97C658.47,-284.57 664.9,-281.77 671,-278.5 692.38,-267.05 686.47,-250.4 707,-237.5 726.44,-225.28 749.57,-216.63 771.66,-210.54"/>
<polygon fill="#757575" stroke="#757575" points="772.59,-213.92 781.38,-208.01 770.82,-207.15 772.59,-213.92"/>
</g>
<!-- application/usecases/CloseSlotsUseCase.ts&#45;&gt;domain/services/ReservationService.ts -->
<g id="edge9" class="edge">
<title>application/usecases/CloseSlotsUseCase.ts&#45;&gt;domain/services/ReservationService.ts</title>
<path fill="none" stroke="#757575" d="M615.36,-286.97C657.53,-281.76 707.49,-275.59 750.78,-270.25"/>
<polygon fill="#757575" stroke="#757575" points="751.27,-273.71 760.76,-269.01 750.41,-266.77 751.27,-273.71"/>
</g>
<!-- application/usecases/CreateSlotsUseCase.ts -->
<g id="node11" class="node">
<title>application/usecases/CreateSlotsUseCase.ts</title>
<path fill="none" stroke="#c6c5fe" d="M656.33,-392C656.33,-392 385.67,-392 385.67,-392 381.83,-392 378,-388.17 378,-384.33 378,-384.33 378,-376.67 378,-376.67 378,-372.83 381.83,-369 385.67,-369 385.67,-369 656.33,-369 656.33,-369 660.17,-369 664,-372.83 664,-376.67 664,-376.67 664,-384.33 664,-384.33 664,-388.17 660.17,-392 656.33,-392"/>
<text text-anchor="middle" x="521" y="-376.8" font-family="Arial" font-size="14.00" fill="#c6c5fe">application/usecases/CreateSlotsUseCase.ts</text>
</g>
<!-- application/usecases/CreateSlotsUseCase.ts&#45;&gt;domain/services/ReservationService.ts -->
<g id="edge10" class="edge">
<title>application/usecases/CreateSlotsUseCase.ts&#45;&gt;domain/services/ReservationService.ts</title>
<path fill="none" stroke="#757575" d="M639.68,-368.98C650.39,-366.65 660.98,-363.86 671,-360.5 732.25,-340 796.37,-298.54 830.05,-274.95"/>
<polygon fill="#757575" stroke="#757575" points="832.2,-277.72 838.33,-269.09 828.15,-272.01 832.2,-277.72"/>
</g>
<!-- application/usecases/OpenSlotUseCase.ts -->
<g id="node12" class="node">
<title>application/usecases/OpenSlotUseCase.ts</title>
<path fill="none" stroke="#c6c5fe" d="M649.33,-228C649.33,-228 392.67,-228 392.67,-228 388.83,-228 385,-224.17 385,-220.33 385,-220.33 385,-212.67 385,-212.67 385,-208.83 388.83,-205 392.67,-205 392.67,-205 649.33,-205 649.33,-205 653.17,-205 657,-208.83 657,-212.67 657,-212.67 657,-220.33 657,-220.33 657,-224.17 653.17,-228 649.33,-228"/>
<text text-anchor="middle" x="521" y="-212.8" font-family="Arial" font-size="14.00" fill="#c6c5fe">application/usecases/OpenSlotUseCase.ts</text>
</g>
<!-- application/usecases/OpenSlotUseCase.ts&#45;&gt;application/services/SlotLoaderService.ts -->
<g id="edge11" class="edge">
<title>application/usecases/OpenSlotUseCase.ts&#45;&gt;application/services/SlotLoaderService.ts</title>
<path fill="none" stroke="#757575" d="M657.04,-208.37C675.6,-207.25 694.7,-206.1 713.37,-204.97"/>
<polygon fill="#757575" stroke="#757575" points="713.61,-208.46 723.38,-204.37 713.19,-201.48 713.61,-208.46"/>
</g>
<!-- application/usecases/OpenSlotUseCase.ts&#45;&gt;domain/services/ReservationService.ts -->
<g id="edge12" class="edge">
<title>application/usecases/OpenSlotUseCase.ts&#45;&gt;domain/services/ReservationService.ts</title>
<path fill="none" stroke="#757575" d="M615.36,-228.03C657.53,-233.24 707.49,-239.41 750.78,-244.75"/>
<polygon fill="#757575" stroke="#757575" points="750.41,-248.23 760.76,-245.99 751.27,-241.29 750.41,-248.23"/>
</g>
<!-- application/usecases/ReserveSlotUseCase.ts -->
<g id="node13" class="node">
<title>application/usecases/ReserveSlotUseCase.ts</title>
<path fill="none" stroke="#c6c5fe" d="M657.83,-105C657.83,-105 384.17,-105 384.17,-105 380.33,-105 376.5,-101.17 376.5,-97.33 376.5,-97.33 376.5,-89.67 376.5,-89.67 376.5,-85.83 380.33,-82 384.17,-82 384.17,-82 657.83,-82 657.83,-82 661.67,-82 665.5,-85.83 665.5,-89.67 665.5,-89.67 665.5,-97.33 665.5,-97.33 665.5,-101.17 661.67,-105 657.83,-105"/>
<text text-anchor="middle" x="521" y="-89.8" font-family="Arial" font-size="14.00" fill="#c6c5fe">application/usecases/ReserveSlotUseCase.ts</text>
</g>
<!-- application/usecases/ReserveSlotUseCase.ts&#45;&gt;application/services/SlotLoaderService.ts -->
<g id="edge13" class="edge">
<title>application/usecases/ReserveSlotUseCase.ts&#45;&gt;application/services/SlotLoaderService.ts</title>
<path fill="none" stroke="#757575" d="M629.79,-105.01C643.78,-107.58 657.82,-110.7 671,-114.5 727.5,-130.79 789.11,-161.28 824.49,-180.14"/>
<polygon fill="#757575" stroke="#757575" points="822.86,-183.24 833.32,-184.9 826.18,-177.08 822.86,-183.24"/>
</g>
<!-- application/usecases/ReserveSlotUseCase.ts&#45;&gt;application/services/VerificationCodeService.ts -->
<g id="edge14" class="edge">
<title>application/usecases/ReserveSlotUseCase.ts&#45;&gt;application/services/VerificationCodeService.ts</title>
<path fill="none" stroke="#757575" d="M665.69,-93.5C675.94,-93.5 686.31,-93.5 696.63,-93.5"/>
<polygon fill="#757575" stroke="#757575" points="696.93,-97 706.93,-93.5 696.93,-90 696.93,-97"/>
</g>
<!-- application/usecases/ReserveSlotUseCase.ts&#45;&gt;domain/services/ReservationService.ts -->
<g id="edge15" class="edge">
<title>application/usecases/ReserveSlotUseCase.ts&#45;&gt;domain/services/ReservationService.ts</title>
<path fill="none" stroke="#757575" d="M657.1,-105.11C662,-107.82 666.66,-110.94 671,-114.5 708.48,-145.27 671.52,-184.44 707,-217.5 718.94,-228.62 733.66,-236.71 749.13,-242.58"/>
<polygon fill="#757575" stroke="#757575" points="748.25,-245.97 758.84,-245.95 750.54,-239.36 748.25,-245.97"/>
</g>
<!-- application/usecases/UnattendSlotsUseCase.ts -->
<g id="node14" class="node">
<title>application/usecases/UnattendSlotsUseCase.ts</title>
<path fill="none" stroke="#c6c5fe" d="M663.33,-187C663.33,-187 378.67,-187 378.67,-187 374.83,-187 371,-183.17 371,-179.33 371,-179.33 371,-171.67 371,-171.67 371,-167.83 374.83,-164 378.67,-164 378.67,-164 663.33,-164 663.33,-164 667.17,-164 671,-167.83 671,-171.67 671,-171.67 671,-179.33 671,-179.33 671,-183.17 667.17,-187 663.33,-187"/>
<text text-anchor="middle" x="521" y="-171.8" font-family="Arial" font-size="14.00" fill="#c6c5fe">application/usecases/UnattendSlotsUseCase.ts</text>
</g>
<!-- application/usecases/UnattendSlotsUseCase.ts&#45;&gt;application/services/SlotLoaderService.ts -->
<g id="edge16" class="edge">
<title>application/usecases/UnattendSlotsUseCase.ts&#45;&gt;application/services/SlotLoaderService.ts</title>
<path fill="none" stroke="#757575" d="M671.01,-184.93C685.08,-185.82 699.33,-186.72 713.33,-187.6"/>
<polygon fill="#757575" stroke="#757575" points="713.27,-191.11 723.47,-188.24 713.71,-184.12 713.27,-191.11"/>
</g>
<!-- application/usecases/UnattendSlotsUseCase.ts&#45;&gt;domain/services/ReservationService.ts -->
<g id="edge17" class="edge">
<title>application/usecases/UnattendSlotsUseCase.ts&#45;&gt;domain/services/ReservationService.ts</title>
<path fill="none" stroke="#757575" d="M636.57,-187.01C648.35,-189.57 660.02,-192.69 671,-196.5 688.5,-202.57 689.92,-210.34 707,-217.5 732.73,-228.29 762.22,-236.97 788,-243.46"/>
<polygon fill="#757575" stroke="#757575" points="787.51,-246.95 798.05,-245.93 789.17,-240.15 787.51,-246.95"/>
</g>
<!-- infrastructure/adapters/web/CancelSlot.ts -->
<g id="node18" class="node">
<title>infrastructure/adapters/web/CancelSlot.ts</title>
<path fill="none" stroke="#c6c5fe" d="M291.33,-269C291.33,-269 43.67,-269 43.67,-269 39.83,-269 36,-265.17 36,-261.33 36,-261.33 36,-253.67 36,-253.67 36,-249.83 39.83,-246 43.67,-246 43.67,-246 291.33,-246 291.33,-246 295.17,-246 299,-249.83 299,-253.67 299,-253.67 299,-261.33 299,-261.33 299,-265.17 295.17,-269 291.33,-269"/>
<text text-anchor="middle" x="167.5" y="-253.8" font-family="Arial" font-size="14.00" fill="#c6c5fe">infrastructure/adapters/web/CancelSlot.ts</text>
</g>
<!-- infrastructure/adapters/web/CancelSlot.ts&#45;&gt;application/usecases/CancelSlotUseCase.ts -->
<g id="edge21" class="edge">
<title>infrastructure/adapters/web/CancelSlot.ts&#45;&gt;application/usecases/CancelSlotUseCase.ts</title>
<path fill="none" stroke="#757575" d="M299.39,-257.5C322.53,-257.5 346.78,-257.5 370.39,-257.5"/>
<polygon fill="#757575" stroke="#757575" points="370.47,-261 380.47,-257.5 370.47,-254 370.47,-261"/>
</g>
<!-- infrastructure/adapters/web/CheckIn.ts -->
<g id="node19" class="node">
<title>infrastructure/adapters/web/CheckIn.ts</title>
<path fill="none" stroke="#c6c5fe" d="M283.83,-146C283.83,-146 51.17,-146 51.17,-146 47.33,-146 43.5,-142.17 43.5,-138.33 43.5,-138.33 43.5,-130.67 43.5,-130.67 43.5,-126.83 47.33,-123 51.17,-123 51.17,-123 283.83,-123 283.83,-123 287.67,-123 291.5,-126.83 291.5,-130.67 291.5,-130.67 291.5,-138.33 291.5,-138.33 291.5,-142.17 287.67,-146 283.83,-146"/>
<text text-anchor="middle" x="167.5" y="-130.8" font-family="Arial" font-size="14.00" fill="#c6c5fe">infrastructure/adapters/web/CheckIn.ts</text>
</g>
<!-- infrastructure/adapters/web/CheckIn.ts&#45;&gt;application/usecases/CheckInUseCase.ts -->
<g id="edge22" class="edge">
<title>infrastructure/adapters/web/CheckIn.ts&#45;&gt;application/usecases/CheckInUseCase.ts</title>
<path fill="none" stroke="#757575" d="M291.93,-134.5C319.8,-134.5 349.6,-134.5 378.16,-134.5"/>
<polygon fill="#757575" stroke="#757575" points="378.21,-138 388.21,-134.5 378.21,-131 378.21,-138"/>
</g>
<!-- infrastructure/adapters/web/CheckOut.ts -->
<g id="node20" class="node">
<title>infrastructure/adapters/web/CheckOut.ts</title>
<path fill="none" stroke="#c6c5fe" d="M289.33,-351C289.33,-351 45.67,-351 45.67,-351 41.83,-351 38,-347.17 38,-343.33 38,-343.33 38,-335.67 38,-335.67 38,-331.83 41.83,-328 45.67,-328 45.67,-328 289.33,-328 289.33,-328 293.17,-328 297,-331.83 297,-335.67 297,-335.67 297,-343.33 297,-343.33 297,-347.17 293.17,-351 289.33,-351"/>
<text text-anchor="middle" x="167.5" y="-335.8" font-family="Arial" font-size="14.00" fill="#c6c5fe">infrastructure/adapters/web/CheckOut.ts</text>
</g>
<!-- infrastructure/adapters/web/CheckOut.ts&#45;&gt;application/usecases/CheckOutUseCase.ts -->
<g id="edge23" class="edge">
<title>infrastructure/adapters/web/CheckOut.ts&#45;&gt;application/usecases/CheckOutUseCase.ts</title>
<path fill="none" stroke="#757575" d="M297.39,-339.5C321.84,-339.5 347.6,-339.5 372.58,-339.5"/>
<polygon fill="#757575" stroke="#757575" points="372.85,-343 382.85,-339.5 372.85,-336 372.85,-343"/>
</g>
<!-- infrastructure/adapters/web/CloseSlots.ts -->
<g id="node21" class="node">
<title>infrastructure/adapters/web/CloseSlots.ts</title>
<path fill="none" stroke="#c6c5fe" d="M291.33,-310C291.33,-310 43.67,-310 43.67,-310 39.83,-310 36,-306.17 36,-302.33 36,-302.33 36,-294.67 36,-294.67 36,-290.83 39.83,-287 43.67,-287 43.67,-287 291.33,-287 291.33,-287 295.17,-287 299,-290.83 299,-294.67 299,-294.67 299,-302.33 299,-302.33 299,-306.17 295.17,-310 291.33,-310"/>
<text text-anchor="middle" x="167.5" y="-294.8" font-family="Arial" font-size="14.00" fill="#c6c5fe">infrastructure/adapters/web/CloseSlots.ts</text>
</g>
<!-- infrastructure/adapters/web/CloseSlots.ts&#45;&gt;application/usecases/CloseSlotsUseCase.ts -->
<g id="edge24" class="edge">
<title>infrastructure/adapters/web/CloseSlots.ts&#45;&gt;application/usecases/CloseSlotsUseCase.ts</title>
<path fill="none" stroke="#757575" d="M299.39,-298.5C322.61,-298.5 346.96,-298.5 370.65,-298.5"/>
<polygon fill="#757575" stroke="#757575" points="370.76,-302 380.76,-298.5 370.76,-295 370.76,-302"/>
</g>
<!-- infrastructure/adapters/web/CreateSlots.ts -->
<g id="node22" class="node">
<title>infrastructure/adapters/web/CreateSlots.ts</title>
<path fill="none" stroke="#c6c5fe" d="M294.33,-392C294.33,-392 40.67,-392 40.67,-392 36.83,-392 33,-388.17 33,-384.33 33,-384.33 33,-376.67 33,-376.67 33,-372.83 36.83,-369 40.67,-369 40.67,-369 294.33,-369 294.33,-369 298.17,-369 302,-372.83 302,-376.67 302,-376.67 302,-384.33 302,-384.33 302,-388.17 298.17,-392 294.33,-392"/>
<text text-anchor="middle" x="167.5" y="-376.8" font-family="Arial" font-size="14.00" fill="#c6c5fe">infrastructure/adapters/web/CreateSlots.ts</text>
</g>
<!-- infrastructure/adapters/web/CreateSlots.ts&#45;&gt;application/usecases/CreateSlotsUseCase.ts -->
<g id="edge25" class="edge">
<title>infrastructure/adapters/web/CreateSlots.ts&#45;&gt;application/usecases/CreateSlotsUseCase.ts</title>
<path fill="none" stroke="#757575" d="M302.14,-380.5C323.6,-380.5 345.95,-380.5 367.81,-380.5"/>
<polygon fill="#757575" stroke="#757575" points="367.81,-384 377.81,-380.5 367.81,-377 367.81,-384"/>
</g>
<!-- infrastructure/adapters/web/OpenSlot.ts -->
<g id="node23" class="node">
<title>infrastructure/adapters/web/OpenSlot.ts</title>
<path fill="none" stroke="#c6c5fe" d="M287.33,-228C287.33,-228 47.67,-228 47.67,-228 43.83,-228 40,-224.17 40,-220.33 40,-220.33 40,-212.67 40,-212.67 40,-208.83 43.83,-205 47.67,-205 47.67,-205 287.33,-205 287.33,-205 291.17,-205 295,-208.83 295,-212.67 295,-212.67 295,-220.33 295,-220.33 295,-224.17 291.17,-228 287.33,-228"/>
<text text-anchor="middle" x="167.5" y="-212.8" font-family="Arial" font-size="14.00" fill="#c6c5fe">infrastructure/adapters/web/OpenSlot.ts</text>
</g>
<!-- infrastructure/adapters/web/OpenSlot.ts&#45;&gt;application/usecases/OpenSlotUseCase.ts -->
<g id="edge26" class="edge">
<title>infrastructure/adapters/web/OpenSlot.ts&#45;&gt;application/usecases/OpenSlotUseCase.ts</title>
<path fill="none" stroke="#757575" d="M295.4,-216.5C321.21,-216.5 348.54,-216.5 374.92,-216.5"/>
<polygon fill="#757575" stroke="#757575" points="374.98,-220 384.98,-216.5 374.98,-213 374.98,-220"/>
</g>
<!-- infrastructure/adapters/web/ReserveSlot.ts -->
<g id="node24" class="node">
<title>infrastructure/adapters/web/ReserveSlot.ts</title>
<path fill="none" stroke="#c6c5fe" d="M295.83,-105C295.83,-105 39.17,-105 39.17,-105 35.33,-105 31.5,-101.17 31.5,-97.33 31.5,-97.33 31.5,-89.67 31.5,-89.67 31.5,-85.83 35.33,-82 39.17,-82 39.17,-82 295.83,-82 295.83,-82 299.67,-82 303.5,-85.83 303.5,-89.67 303.5,-89.67 303.5,-97.33 303.5,-97.33 303.5,-101.17 299.67,-105 295.83,-105"/>
<text text-anchor="middle" x="167.5" y="-89.8" font-family="Arial" font-size="14.00" fill="#c6c5fe">infrastructure/adapters/web/ReserveSlot.ts</text>
</g>
<!-- infrastructure/adapters/web/ReserveSlot.ts&#45;&gt;application/usecases/ReserveSlotUseCase.ts -->
<g id="edge27" class="edge">
<title>infrastructure/adapters/web/ReserveSlot.ts&#45;&gt;application/usecases/ReserveSlotUseCase.ts</title>
<path fill="none" stroke="#757575" d="M303.65,-93.5C324.1,-93.5 345.33,-93.5 366.14,-93.5"/>
<polygon fill="#757575" stroke="#757575" points="366.32,-97 376.32,-93.5 366.32,-90 366.32,-97"/>
</g>
<!-- infrastructure/adapters/web/UnattendSlots.ts -->
<g id="node25" class="node">
<title>infrastructure/adapters/web/UnattendSlots.ts</title>
<path fill="none" stroke="#c6c5fe" d="M301.33,-187C301.33,-187 33.67,-187 33.67,-187 29.83,-187 26,-183.17 26,-179.33 26,-179.33 26,-171.67 26,-171.67 26,-167.83 29.83,-164 33.67,-164 33.67,-164 301.33,-164 301.33,-164 305.17,-164 309,-167.83 309,-171.67 309,-171.67 309,-179.33 309,-179.33 309,-183.17 305.17,-187 301.33,-187"/>
<text text-anchor="middle" x="167.5" y="-171.8" font-family="Arial" font-size="14.00" fill="#c6c5fe">infrastructure/adapters/web/UnattendSlots.ts</text>
</g>
<!-- infrastructure/adapters/web/UnattendSlots.ts&#45;&gt;application/usecases/UnattendSlotsUseCase.ts -->
<g id="edge28" class="edge">
<title>infrastructure/adapters/web/UnattendSlots.ts&#45;&gt;application/usecases/UnattendSlotsUseCase.ts</title>
<path fill="none" stroke="#757575" d="M309.19,-175.5C326.12,-175.5 343.51,-175.5 360.69,-175.5"/>
<polygon fill="#757575" stroke="#757575" points="360.77,-179 370.77,-175.5 360.77,-172 360.77,-179"/>
</g>
<!-- infrastructure/authorizers/Authorizer.ts -->
<g id="node26" class="node">
<title>infrastructure/authorizers/Authorizer.ts</title>
<path fill="none" stroke="#cfffac" d="M282.33,-433C282.33,-433 52.67,-433 52.67,-433 48.83,-433 45,-429.17 45,-425.33 45,-425.33 45,-417.67 45,-417.67 45,-413.83 48.83,-410 52.67,-410 52.67,-410 282.33,-410 282.33,-410 286.17,-410 290,-413.83 290,-417.67 290,-417.67 290,-425.33 290,-425.33 290,-429.17 286.17,-433 282.33,-433"/>
<text text-anchor="middle" x="167.5" y="-417.8" font-family="Arial" font-size="14.00" fill="#cfffac">infrastructure/authorizers/Authorizer.ts</text>
</g>
<!-- infrastructure/emitters/EventBridgeEmitter.ts -->
<g id="node27" class="node">
<title>infrastructure/emitters/EventBridgeEmitter.ts</title>
<path fill="none" stroke="#cfffac" d="M300.83,-474C300.83,-474 34.17,-474 34.17,-474 30.33,-474 26.5,-470.17 26.5,-466.33 26.5,-466.33 26.5,-458.67 26.5,-458.67 26.5,-454.83 30.33,-451 34.17,-451 34.17,-451 300.83,-451 300.83,-451 304.67,-451 308.5,-454.83 308.5,-458.67 308.5,-458.67 308.5,-466.33 308.5,-466.33 308.5,-470.17 304.67,-474 300.83,-474"/>
<text text-anchor="middle" x="167.5" y="-458.8" font-family="Arial" font-size="14.00" fill="#cfffac">infrastructure/emitters/EventBridgeEmitter.ts</text>
</g>
<!-- infrastructure/emitters/LocalEmitter.ts -->
<g id="node28" class="node">
<title>infrastructure/emitters/LocalEmitter.ts</title>
<path fill="none" stroke="#cfffac" d="M280.33,-515C280.33,-515 54.67,-515 54.67,-515 50.83,-515 47,-511.17 47,-507.33 47,-507.33 47,-499.67 47,-499.67 47,-495.83 50.83,-492 54.67,-492 54.67,-492 280.33,-492 280.33,-492 284.17,-492 288,-495.83 288,-499.67 288,-499.67 288,-507.33 288,-507.33 288,-511.17 284.17,-515 280.33,-515"/>
<text text-anchor="middle" x="167.5" y="-499.8" font-family="Arial" font-size="14.00" fill="#cfffac">infrastructure/emitters/LocalEmitter.ts</text>
</g>
<!-- infrastructure/repositories/DynamoDbRepository.ts -->
<g id="node29" class="node">
<title>infrastructure/repositories/DynamoDbRepository.ts</title>
<path fill="none" stroke="#cfffac" d="M319.33,-556C319.33,-556 15.67,-556 15.67,-556 11.83,-556 8,-552.17 8,-548.33 8,-548.33 8,-540.67 8,-540.67 8,-536.83 11.83,-533 15.67,-533 15.67,-533 319.33,-533 319.33,-533 323.17,-533 327,-536.83 327,-540.67 327,-540.67 327,-548.33 327,-548.33 327,-552.17 323.17,-556 319.33,-556"/>
<text text-anchor="middle" x="167.5" y="-540.8" font-family="Arial" font-size="14.00" fill="#cfffac">infrastructure/repositories/DynamoDbRepository.ts</text>
</g>
<!-- infrastructure/repositories/LocalRepository.ts -->
<g id="node30" class="node">
<title>infrastructure/repositories/LocalRepository.ts</title>
<path fill="none" stroke="#cfffac" d="M301.33,-597C301.33,-597 33.67,-597 33.67,-597 29.83,-597 26,-593.17 26,-589.33 26,-589.33 26,-581.67 26,-581.67 26,-577.83 29.83,-574 33.67,-574 33.67,-574 301.33,-574 301.33,-574 305.17,-574 309,-577.83 309,-581.67 309,-581.67 309,-589.33 309,-589.33 309,-593.17 305.17,-597 301.33,-597"/>
<text text-anchor="middle" x="167.5" y="-581.8" font-family="Arial" font-size="14.00" fill="#cfffac">infrastructure/repositories/LocalRepository.ts</text>
</g>
</g>
</svg>
